<svg xmlns="http://www.w3.org/2000/svg" width="200" height="200" viewBox="0 0 200 200">
<defs>
    <style>
      .cls-1 {
        fill: #fff;
        fill-rule: evenodd;
      }
    </style>
  </defs>
  <path class="cls-1" d="M1.5,0H53.046a1.5,1.5,0,0,1,1.5,1.5V53.046a1.5,1.5,0,0,1-1.5,1.5H1.5a1.5,1.5,0,0,1-1.5-1.5V1.5A1.5,1.5,0,0,1,1.5,0ZM74.227,0h51.546a1.5,1.5,0,0,1,1.5,1.5V53.046a1.5,1.5,0,0,1-1.5,1.5H74.227a1.5,1.5,0,0,1-1.5-1.5V1.5A1.5,1.5,0,0,1,74.227,0Zm72.728,0H198.5A1.5,1.5,0,0,1,200,1.5V53.046a1.5,1.5,0,0,1-1.5,1.5H146.955a1.5,1.5,0,0,1-1.5-1.5V1.5A1.5,1.5,0,0,1,146.955,0ZM1.5,72.727H53.046a1.5,1.5,0,0,1,1.5,1.5v51.546a1.5,1.5,0,0,1-1.5,1.5H1.5a1.5,1.5,0,0,1-1.5-1.5V74.227A1.5,1.5,0,0,1,1.5,72.727Zm72.727,0h51.546a1.5,1.5,0,0,1,1.5,1.5v51.546a1.5,1.5,0,0,1-1.5,1.5H74.227a1.5,1.5,0,0,1-1.5-1.5V74.227A1.5,1.5,0,0,1,74.227,72.727Zm72.728,0H198.5a1.5,1.5,0,0,1,1.5,1.5v51.546a1.5,1.5,0,0,1-1.5,1.5H146.955a1.5,1.5,0,0,1-1.5-1.5V74.227A1.5,1.5,0,0,1,146.955,72.727ZM1.5,145.455H53.046a1.5,1.5,0,0,1,1.5,1.5V198.5a1.5,1.5,0,0,1-1.5,1.5H1.5A1.5,1.5,0,0,1,0,198.5V146.955A1.5,1.5,0,0,1,1.5,145.455Zm72.727,0h51.546a1.5,1.5,0,0,1,1.5,1.5V198.5a1.5,1.5,0,0,1-1.5,1.5H74.227a1.5,1.5,0,0,1-1.5-1.5V146.955A1.5,1.5,0,0,1,74.227,145.455Zm72.728,0H198.5a1.5,1.5,0,0,1,1.5,1.5V198.5a1.5,1.5,0,0,1-1.5,1.5H146.955a1.5,1.5,0,0,1-1.5-1.5V146.955A1.5,1.5,0,0,1,146.955,145.455ZM18.182,18.182H36.364V36.364H18.182V18.182Zm72.727,0h18.182V36.364H90.909V18.182Zm72.727,0h18.182V36.364H163.636V18.182Zm0,72.727h18.182v18.182H163.636V90.909Zm-72.727,0h18.182v18.182H90.909V90.909Zm-72.727,0H36.364v18.182H18.182V90.909Zm0,72.727H36.364v18.182H18.182V163.636Zm72.727,0h18.182v18.182H90.909V163.636Zm72.727,0h18.182v18.182H163.636V163.636Z"/>
</svg>
